<?xml version="1.0" encoding="UTF-8" standalone="no"?><svg width="1006" height="112.5" viewBox="0 0 1006 112.5" xmlns="http://www.w3.org/2000/svg">
<defs>
<marker id="startarrow" markerWidth="10" markerHeight="7"
refX="0" refY="3.5" orient="auto">
<polygon points="10 0, 10 7, 0 3.5" fill="context-stroke" />
</marker>
<marker id="endarrow" markerWidth="10" markerHeight="7"
refX="10" refY="3.5" orient="auto">
<polygon points="0 0, 10 3.5, 0 7" fill="context-stroke" />
</marker>

</defs><style>
.a24 { font-size: 24px; font-family: Times, serif; }
.a14 { font-size: 14px; font-family: Times, serif; }
</style>
<g >

            <rect x="30" y="30" width="971" height="35" fill="#ffffffff" 
            stroke-width="1" stroke="#000000ff" rx="0"  />

            </g>
<g >

            <rect x="33" y="33" width="183" height="29" fill="#ffffffff" 
            stroke-width="1" stroke="#000000ff" rx="0"  />

            </g>
<text dominant-baseline="middle" text-anchor="middle" 
            x="124.5" y="33.5" class="a14" fill="#000000ff"><tspan x = "124.5" dy="1.0em">line 1</tspan></text><g >

            <rect x="219" y="33" width="155" height="29" fill="#0000ffff" 
            stroke-width="1" stroke="#000000ff" rx="0"  />

            </g>
<text dominant-baseline="middle" text-anchor="middle" 
            x="296.5" y="33.5" class="a14" fill="#ffffffff"><tspan x = "296.5" dy="1.0em">line2</tspan></text><g >

            <rect x="377" y="33" width="155" height="29" fill="#808080ff" 
            stroke-width="1" stroke="#000000ff" rx="0"  />

            </g>
<text dominant-baseline="middle" text-anchor="middle" 
            x="454.5" y="23.5" class="a24" fill="#000000ff"><tspan x = "454.5" dy="1.0em">line3</tspan></text><g >

            <rect x="535" y="33" width="155" height="29" fill="#ffff00ff" 
            stroke-width="1" stroke="#000000ff" rx="0"  />

            </g>
<text dominant-baseline="middle" text-anchor="middle" 
            x="612.5" y="23.5" class="a24" fill="#000000ff"><tspan x = "612.5" dy="1.0em">line4</tspan></text><g >

            <rect x="693" y="33" width="305" height="29" fill="#ffffffff" 
            stroke-width="1" stroke="#000000ff" rx="0"  />

            </g>
<g >

            <rect x="695.5" y="35.5" width="300" height="24" fill="#ffffffff" 
            stroke-width="0" stroke="#000000ff" rx="0"  />

            </g>
<g >

            <rect x="695.5" y="35.5" width="150" height="24" fill="#ffffffff" 
            stroke-width="0" stroke="#000000ff" rx="0"  />

            </g>
<text dominant-baseline="middle" text-anchor="middle" 
            x="770.5" y="33.5" class="a14" fill="#008000ff"><tspan x = "770.5" dy="1.0em">Mixed</tspan></text><g >

            <rect x="845.5" y="35.5" width="150" height="24" fill="#ffffffff" 
            stroke-width="0" stroke="#000000ff" rx="0"  />

            </g>
<text dominant-baseline="middle" text-anchor="middle" 
            x="920.5" y="33.5" class="a14" fill="#ff0000ff"><tspan x = "920.5" dy="1.0em">fonts</tspan></text></svg>